<?xml version="1.0" encoding="UTF-8"?>
<svg version="1.1" xmlns="http://www.w3.org/2000/svg" width="541" height="157">
<path d="M0 0 C178.53 0 357.06 0 541 0 C541 51.81 541 103.62 541 157 C362.47 157 183.94 157 0 157 C0 105.19 0 53.38 0 0 Z " fill="#FEBEC0" transform="translate(0,0)"/>
<path d="M0 0 C2.0397416 0.73740261 4.08010369 1.47309122 6.12109375 2.20703125 C7.09804199 2.56104004 8.07499023 2.91504883 9.08154297 3.27978516 C14.26933662 5.12282932 19.53582508 6.68293379 24.8125 8.25 C25.8025 8.58 26.7925 8.91 27.8125 9.25 C27.8125 9.91 27.8125 10.57 27.8125 11.25 C26.35817191 11.8856432 24.90371598 12.52099392 23.44921875 13.15625 C22.50836426 13.56721924 21.56750977 13.97818848 20.59814453 14.40161133 C18.51885953 15.30656728 16.43777357 16.20739559 14.35498047 17.10424805 C9.32643767 19.27037182 4.32188072 21.4617617 -0.62890625 23.80078125 C-1.46446045 24.18363281 -2.30001465 24.56648438 -3.16088867 24.9609375 C-4.72004765 25.67608697 -6.26935452 26.41327338 -7.8059082 27.17578125 C-11.54965578 28.85870754 -14.1549046 29.63377242 -18.13671875 28.390625 C-19.8303304 27.70119828 -21.51215779 26.98270602 -23.1875 26.25 C-24.47391987 25.73241199 -25.76217649 25.21937691 -27.05175781 24.7097168 C-30.807753 23.2196019 -34.5474751 21.69283413 -38.28295898 20.15209961 C-40.64133849 19.18077078 -43.00314923 18.21813607 -45.36523438 17.25585938 C-46.86740224 16.63854313 -48.36936312 16.02072291 -49.87109375 15.40234375 C-50.57624619 15.11584457 -51.28139862 14.8293454 -52.00791931 14.53416443 C-54.85131475 13.35379876 -56.98818487 12.44931513 -59.1875 10.25 C-53.19448716 7.44024595 -47.20784051 5.16320159 -40.875 3.25 C-39.20538518 2.73809977 -37.5361134 2.22507934 -35.8671875 1.7109375 C-35.06635742 1.4644043 -34.26552734 1.21787109 -33.44042969 0.96386719 C-29.56037617 -0.26557326 -25.73846518 -1.66268978 -21.92578125 -3.0859375 C-13.78531768 -5.06008701 -7.61693121 -2.84662413 0 0 Z " fill="#151414" transform="translate(75.1875,52.75)"/>
<path d="M0 0 C0 5.94 0 11.88 0 18 C-2.289375 18.7425 -4.57875 19.485 -6.9375 20.25 C-12.799866 22.1801373 -18.39709546 24.40810518 -24 27 C-30.40344445 29.88155 -34.37570413 30.23722791 -41.078125 27.94921875 C-42.64820313 27.32466797 -42.64820313 27.32466797 -44.25 26.6875 C-45.37921875 26.24148437 -46.5084375 25.79546875 -47.671875 25.3359375 C-48.77015625 24.89507812 -49.8684375 24.45421875 -51 24 C-51.95390625 23.62101562 -52.9078125 23.24203125 -53.890625 22.8515625 C-56.26284463 21.90693612 -58.63184801 20.9547655 -61 20 C-63.475 19.01 -63.475 19.01 -66 18 C-66 12.39 -66 6.78 -66 1 C-62.60508306 1.67898339 -60.17697532 2.20723186 -57.109375 3.48828125 C-56.05109497 3.92720703 -56.05109497 3.92720703 -54.97143555 4.375 C-53.87182495 4.8390625 -53.87182495 4.8390625 -52.75 5.3125 C-51.99436768 5.62574219 -51.23873535 5.93898438 -50.46020508 6.26171875 C-46.48789052 7.91681419 -42.5740585 9.65080271 -38.6875 11.5 C-32.7539813 13.91363472 -28.15354833 10.98607378 -22.4375 8.75 C-21.63699219 8.43861084 -20.83648437 8.12722168 -20.01171875 7.80639648 C-14.57265753 5.67079735 -9.2384527 3.37678825 -3.96875 0.84765625 C-2 0 -2 0 0 0 Z " fill="#171516" transform="translate(93,72)"/>
<path d="M0 0 C12.21 0 24.42 0 37 0 C37 10.31587866 37 10.31587866 32.1875 15.25 C31.18169896 16.35623223 30.17650935 17.46302063 29.171875 18.5703125 C28.65044922 19.13008789 28.12902344 19.68986328 27.59179688 20.26660156 C24.95037056 23.14300139 22.45016064 26.13633187 19.9375 29.125 C19.240802 29.94145996 19.240802 29.94145996 18.5300293 30.77441406 C16.53450371 33.11999937 14.71114423 35.43328366 13 38 C21.25 38.33 29.5 38.66 38 39 C38 41.97 38 44.94 38 48 C24.8 48 11.6 48 -2 48 C-2 37.88966725 -2 37.88966725 1.8125 33.75 C2.6271875 32.83476563 3.441875 31.91953125 4.28125 30.9765625 C4.72082031 30.49864258 5.16039062 30.02072266 5.61328125 29.52832031 C8.0927962 26.79561546 10.44008504 23.95050963 12.8125 21.125 C13.71453117 20.06483813 14.61686223 19.00493133 15.51953125 17.9453125 C17.72108406 15.33118522 19.86499592 12.6687551 22 10 C14.74 9.67 7.48 9.34 0 9 C0 6.03 0 3.06 0 0 Z " fill="#191717" transform="translate(368,52)"/>
<path d="M0 0 C3.99561245 2.18668972 6.73683022 5.35320374 9.1484375 9.17578125 C10.0859375 12.67578125 10.0859375 12.67578125 10.1484375 15.17578125 C6.77033866 15.46098659 3.51575048 15.62875852 0.1484375 15.17578125 C-1.7265625 12.80078125 -1.7265625 12.80078125 -2.8515625 10.17578125 C-5.86184235 7.83445247 -9.13202041 7.7575809 -12.88671875 7.85546875 C-16.05461683 8.37190542 -17.69111185 9.88824527 -19.8515625 12.17578125 C-23.27268534 17.45202 -22.4235689 24.16273839 -21.8515625 30.17578125 C-20.68843738 33.52126485 -18.89295722 35.35754254 -16.1015625 37.55078125 C-12.60981872 38.52071008 -9.38664265 38.98941081 -5.8515625 38.17578125 C-2.31495912 35.50599243 -0.92145163 32.45533776 0.1484375 28.17578125 C3.4484375 28.17578125 6.7484375 28.17578125 10.1484375 28.17578125 C9.54515584 34.20859789 8.2102236 38.59854862 4.3984375 43.36328125 C-1.12517046 47.81285433 -6.17569321 48.73741585 -13.13671875 48.52734375 C-19.77542152 47.66765562 -24.59781028 44.25665196 -28.8515625 39.17578125 C-33.67530302 31.94017047 -34.49845463 25.74405059 -33.8515625 17.17578125 C-31.72701184 9.80234073 -26.68490347 3.46512355 -19.9765625 -0.32421875 C-13.41596591 -3.16840802 -6.59871035 -2.4426805 0 0 Z " fill="#1A1718" transform="translate(171.8515625,52.82421875)"/>
<path d="M0 0 C4.52111104 4.63703697 6.6466695 9.04018977 6.875 15.5625 C6.57577272 21.66860661 4.81853289 26.38168223 0.6875 30.9375 C-3.97294272 34.61418189 -9.22841024 34.38090792 -14.9453125 34.16015625 C-20.29627833 33.18357609 -23.36943053 30.82779663 -26.5625 26.5 C-29.81535275 21.42079471 -29.15397393 15.2921167 -28.5625 9.5 C-26.8125 5.9375 -26.8125 5.9375 -24.5625 3.5 C-23.9025 2.736875 -23.2425 1.97375 -22.5625 1.1875 C-16.94378085 -3.55329428 -6.33966326 -2.6693319 0 0 Z " fill="#181616" transform="translate(438.5625,66.5)"/>
<path d="M0 0 C3.91912581 2.91422175 6.53362701 6.33472146 8.4375 10.8125 C9.35061303 17.89209066 8.34327244 23.65217184 4.20703125 29.57421875 C1.34521443 32.73030979 -0.86900847 33.70557399 -5.109375 34.359375 C-16.15160512 34.75218161 -16.15160512 34.75218161 -20.8125 31.625 C-25.28619104 27.04963416 -26.98348736 23.8910596 -26.9375 17.4375 C-26.76367359 11.27709217 -26.36212334 7.09974542 -22.26171875 2.28515625 C-16.19153751 -3.15240064 -7.30911645 -2.43637215 0 0 Z " fill="#181616" transform="translate(214.5625,66.1875)"/>
<path d="M0 0 C4.1826903 2.02359099 6.17658467 4.9949317 8.1796875 8.984375 C8.80859375 11.375 8.80859375 11.375 8.80859375 19.375 C0.88859375 19.375 -7.03140625 19.375 -15.19140625 19.375 C-14.53140625 21.355 -13.87140625 23.335 -13.19140625 25.375 C-10.02468683 26.95835971 -6.64218174 26.80545016 -3.19140625 26.375 C-2.69640625 25.88 -2.20140625 25.385 -1.69140625 24.875 C-0.19140625 23.375 -0.19140625 23.375 1.7578125 23.17578125 C3.77580482 23.18634665 5.79300985 23.27587292 7.80859375 23.375 C7.69803744 27.13391457 6.48609305 29.08366265 3.87109375 31.625 C-0.47033068 35.07496151 -4.73074735 35.76190659 -10.19140625 35.375 C-16.3064144 33.47032533 -20.75939544 30.84398416 -24.00390625 25.25 C-25.9555563 19.981673 -26.39214019 14.36657216 -24.27734375 9.09765625 C-18.80489125 -0.38204372 -10.48898605 -2.99151117 0 0 Z " fill="#1A1717" transform="translate(353.19140625,65.625)"/>
<path d="M0 0 C4.55022174 2.14707433 6.29086577 5.50946541 8.17578125 9.90234375 C8.8046875 12.4140625 8.8046875 12.4140625 8.8046875 19.4140625 C0.8846875 19.4140625 -7.0353125 19.4140625 -15.1953125 19.4140625 C-14.5353125 21.3940625 -13.8753125 23.3740625 -13.1953125 25.4140625 C-10.02859308 26.99742221 -6.64608799 26.84451266 -3.1953125 26.4140625 C-2.7003125 25.9190625 -2.2053125 25.4240625 -1.6953125 24.9140625 C-0.1953125 23.4140625 -0.1953125 23.4140625 1.75390625 23.21484375 C3.77189857 23.22540915 5.7891036 23.31493542 7.8046875 23.4140625 C6.60196746 27.82403596 5.49286444 30.62300968 1.8046875 33.4140625 C-4.80648693 36.08395986 -10.4454031 35.38278607 -17.1953125 33.4140625 C-17.1953125 32.7540625 -17.1953125 32.0940625 -17.1953125 31.4140625 C-17.7728125 31.2284375 -18.3503125 31.0428125 -18.9453125 30.8515625 C-22.29287522 28.71284187 -23.89828252 26.07587945 -25.1953125 22.4140625 C-26.27475336 16.34906849 -25.81909217 11.66761733 -22.5078125 6.4140625 C-16.96142626 -1.38240808 -8.92321443 -2.38164086 0 0 Z " fill="#1A1818" transform="translate(514.1953125,65.5859375)"/>
<path d="M0 0 C2.97 0 5.94 0 9 0 C9.33 1.32 9.66 2.64 10 4 C10.598125 3.34 11.19625 2.68 11.8125 2 C16.45188674 -0.91098776 20.65652625 -0.79549459 26 0 C30.19220158 2.30998863 31.55041046 4.54042715 33 9 C33.22705078 11.9543457 33.22705078 11.9543457 33.1953125 15.17578125 C33.18886719 16.33271484 33.18242187 17.48964844 33.17578125 18.68164062 C33.15902344 19.87982422 33.14226562 21.07800781 33.125 22.3125 C33.11597656 23.53001953 33.10695313 24.74753906 33.09765625 26.00195312 C33.07413037 29.00150274 33.04125653 32.00065044 33 35 C29.7 35 26.4 35 23 35 C22.98018066 34.2886792 22.96036133 33.5773584 22.93994141 32.84448242 C22.84475133 29.62511184 22.73504771 26.4063955 22.625 23.1875 C22.5940625 22.06794922 22.563125 20.94839844 22.53125 19.79492188 C22.49257813 18.72177734 22.45390625 17.64863281 22.4140625 16.54296875 C22.36693115 15.0583313 22.36693115 15.0583313 22.31884766 13.54370117 C22.16226567 10.75924906 22.16226567 10.75924906 20 8 C16.58410104 7.70928519 14.26157733 7.91280756 11 9 C10.67 17.58 10.34 26.16 10 35 C6.7 35 3.4 35 0 35 C0 23.45 0 11.9 0 0 Z " fill="#211C1D" transform="translate(451,65)"/>
<path d="M0 0 C2.97 0 5.94 0 9 0 C9.01981934 0.64026123 9.03963867 1.28052246 9.06005859 1.94018555 C9.15563601 4.8563528 9.26518214 7.77183572 9.375 10.6875 C9.4059375 11.69490234 9.436875 12.70230469 9.46875 13.74023438 C9.50742188 14.71669922 9.54609375 15.69316406 9.5859375 16.69921875 C9.6173584 17.59471436 9.6487793 18.49020996 9.68115234 19.4128418 C10.02661113 22.21592507 10.84681468 24.43264531 12 27 C15.37436186 27.33380814 15.37436186 27.33380814 19 27 C21.98264153 24.05551502 22.39778552 21.67972144 22.51171875 17.578125 C22.54716797 16.55332031 22.58261719 15.52851562 22.61914062 14.47265625 C22.64169922 13.40917969 22.66425781 12.34570312 22.6875 11.25 C22.72166016 10.17105469 22.75582031 9.09210938 22.79101562 7.98046875 C22.87340663 5.32041623 22.94258645 2.66068965 23 0 C25.97 0 28.94 0 32 0 C32 11.55 32 23.1 32 35 C29.03 35 26.06 35 23 35 C22.67 34.01 22.34 33.02 22 32 C21.401875 32.495 20.80375 32.99 20.1875 33.5 C15.49399592 35.7087078 11.09918781 35.82689532 6 35 C2.33522318 32.36136069 0.77021954 30.37279695 0 26 C-0.08091092 23.97531289 -0.10758899 21.94815381 -0.09765625 19.921875 C-0.09443359 18.76171875 -0.09121094 17.6015625 -0.08789062 16.40625 C-0.07951172 15.1996875 -0.07113281 13.993125 -0.0625 12.75 C-0.05798828 11.52796875 -0.05347656 10.3059375 -0.04882812 9.046875 C-0.03704815 6.03120054 -0.02059853 3.01562502 0 0 Z " fill="#181616" transform="translate(229,65)"/>
<path d="M0 0 C2.40652957 1.82115751 3.41798018 2.88753657 4.3125 5.75 C4.3125 6.74 4.3125 7.73 4.3125 8.75 C2.87594146 8.83131463 1.4380517 8.88933559 0 8.9375 C-0.80050781 8.97230469 -1.60101563 9.00710937 -2.42578125 9.04296875 C-5.2242327 8.68047504 -5.76613263 7.71224753 -7.6875 5.75 C-9.74113606 5.3893369 -9.74113606 5.3893369 -11.875 5.5625 C-13.133125 5.624375 -14.39125 5.68625 -15.6875 5.75 C-15.6875 7.07 -15.6875 8.39 -15.6875 9.75 C-14.83027344 9.92015625 -13.97304688 10.0903125 -13.08984375 10.265625 C-6.60698532 11.6396694 -1.13683903 12.91069296 4.3125 16.75 C6.07570003 20.27640005 6.11521885 23.92263652 5.3125 27.75 C2.5941135 31.27734334 -0.48960943 33.35070314 -4.6875 34.75 C-11.56108486 35.4947401 -16.96322133 34.7583678 -22.6875 30.75 C-24.6875 28.75 -24.6875 28.75 -25.6875 26.75 C-25.6875 25.43 -25.6875 24.11 -25.6875 22.75 C-22.65542486 22.52116414 -19.71126416 22.38018712 -16.6875 22.75 C-15.6614266 24.06337396 -14.66022675 25.39664105 -13.6875 26.75 C-10.93839788 27.12537941 -8.47824049 26.93299938 -5.6875 26.75 C-5.3575 25.43 -5.0275 24.11 -4.6875 22.75 C-8.31677024 20.74435066 -11.76131009 19.41837927 -15.75 18.375 C-20.22451885 17.07246284 -22.94047725 15.68739928 -25.6875 11.75 C-26.40900476 7.90197461 -26.04854841 6.33837519 -24 3 C-17.78692257 -3.04515642 -7.79184838 -2.64130454 0 0 Z " fill="#1B1818" transform="translate(318.6875,66.25)"/>
<path d="M0 0 C2.97 0 5.94 0 9 0 C9.33 1.65 9.66 3.3 10 5 C10.86625 4.175 11.7325 3.35 12.625 2.5 C15.17890641 0.34134101 15.86639751 0.0123706 19.375 -0.3125 C20.24125 -0.209375 21.1075 -0.10625 22 0 C22 2.64 22 5.28 22 8 C19.02148438 8.5859375 19.02148438 8.5859375 16.04296875 9.171875 C13.33904545 10.26792039 12.53215893 11.53448138 11 14 C10.50241248 16.40554294 10.50241248 16.40554294 10.48828125 18.984375 C10.45283203 19.91894531 10.41738281 20.85351562 10.38085938 21.81640625 C10.34702148 23.26853516 10.34702148 23.26853516 10.3125 24.75 C10.27833984 25.73355469 10.24417969 26.71710938 10.20898438 27.73046875 C10.12665691 30.15324858 10.06164775 32.5766058 10 35 C6.7 35 3.4 35 0 35 C0 23.45 0 11.9 0 0 Z " fill="#201C1C" transform="translate(268,65)"/>
<path d="M0 0 C3.31527093 3.10138248 3.946514 6.34747086 4.3125 10.8125 C4.22289036 15.21966522 3.18563681 17.81436319 0 21 C-2.82154616 21.7516414 -5.16710322 21.6689592 -8 21 C-11.26323622 18.90818191 -11.8687337 17.48756055 -12.875 13.75 C-13.02458405 9.26247856 -12.441377 6.25206214 -11 2 C-7.24138868 -0.50574088 -4.42075567 -0.76601821 0 0 Z " fill="#F6BBBD" transform="translate(432,72)"/>
<path d="M0 0 C2.4375 1.8125 2.4375 1.8125 4 5 C4.7475365 10.14027672 4.72810576 14.45277526 2.5 19.1875 C-0.52791523 21.38273854 -2.40737149 21.7468242 -6.09375 21.46484375 C-8 21 -8 21 -10.5 19.1875 C-12.72818748 14.4526016 -12.87796988 10.13689398 -12 5 C-8.78340688 0.02890155 -5.80655602 -1.05573746 0 0 Z " fill="#F9BABD" transform="translate(209,72)"/>
<path d="M0 0 C0.66 0 1.32 0 2 0 C2.83986084 1.93467942 3.67168027 3.87285129 4.5 5.8125 C4.9640625 6.89144531 5.428125 7.97039062 5.90625 9.08203125 C7 12 7 12 7 15 C3.37 15 -0.26 15 -4 15 C-2.91266548 9.87399439 -1.77362508 4.94081272 0 0 Z " fill="#221D1E" transform="translate(103,67)"/>
<path d="M0 0 C2.4375 1.8125 2.4375 1.8125 4 4 C4 4.99 4 5.98 4 7 C-0.95 7 -5.9 7 -11 7 C-10.67 5.35 -10.34 3.7 -10 2 C-6.2794164 -0.48038907 -4.40203429 -0.46337203 0 0 Z " fill="#EFB4B7" transform="translate(349,72)"/>
<path d="M0 0 C1.9375 1.25 1.9375 1.25 3 3 C3 4.32 3 5.64 3 7 C-1.62 7 -6.24 7 -11 7 C-10.67 5.35 -10.34 3.7 -10 2 C-6.30513897 -0.46324069 -4.36706908 -0.38991688 0 0 Z " fill="#F4BABD" transform="translate(510,72)"/>
</svg>
